HIERARCHY
ROOT Hips
{
	OFFSET 0.00000 0.00000 0.00000
	CHANNELS 6 Xposition Yposition Zposition Zrotation Yrotation Xrotation 
	JOINT LHipJoint
	{
		OFFSET 0 0 0
		CHANNELS 3 Zrotation Yrotation Xrotation
		JOINT LeftHip
		{
			OFFSET 1.37959 -1.78713 0.86582
			CHANNELS 3 Zrotation Yrotation Xrotation
			JOINT LeftKnee
			{
				OFFSET 2.54611 -6.99539 0.00000
				CHANNELS 3 Zrotation Yrotation Xrotation
				JOINT LeftAnkle
				{
					OFFSET 2.59951 -7.14211 0.00000
					CHANNELS 3 Zrotation Yrotation Xrotation
					JOINT LeftToe
					{
						OFFSET 0.18493 -0.50810 1.96120
						CHANNELS 3 Zrotation Yrotation Xrotation
						End Site
						{
							OFFSET 0.00000 -0.00000 1.02054
						}
					}
				}
			}
		}
	}
	JOINT RHipJoint
	{
		OFFSET 0 0 0
		CHANNELS 3 Zrotation Yrotation Xrotation
		JOINT RightHip
		{
			OFFSET -1.33564 -1.78713 0.86582
			CHANNELS 3 Zrotation Yrotation Xrotation
			JOINT RightKnee
			{
				OFFSET -2.52705 -6.94302 0.00000
				CHANNELS 3 Zrotation Yrotation Xrotation
				JOINT RightAnkle
				{
					OFFSET -2.55964 -7.03257 0.00000
					CHANNELS 3 Zrotation Yrotation Xrotation
					JOINT RightToe
					{
						OFFSET -0.25804 -0.70896 2.12109
						CHANNELS 3 Zrotation Yrotation Xrotation
						End Site
						{
							OFFSET -0.00000 -0.00000 1.11821
						}
					}
				}
			}
		}
	}
	JOINT lowerback
	{
		OFFSET 0 0 0
		CHANNELS 3 Zrotation Yrotation Xrotation
		JOINT Chest
		{
			OFFSET -0.02031 2.24248 -0.18900
			CHANNELS 3 Zrotation Yrotation Xrotation
			JOINT Chest2
			{
				OFFSET 0.08342 2.24689 -0.03799
				CHANNELS 3 Zrotation Yrotation Xrotation
				JOINT lowerneck
				{
					OFFSET 0 0 0
					CHANNELS 3 Zrotation Yrotation Xrotation
					JOINT Neck
					{
						OFFSET -0.11607 1.55844 0.24628
						CHANNELS 3 Zrotation Yrotation Xrotation
						JOINT Head
						{
							OFFSET 0.06877 1.60174 -0.17013
							CHANNELS 3 Zrotation Yrotation Xrotation
							End Site
							{
								OFFSET 0.03358 1.61266 -0.08543
							}
						}
					}
				}
				JOINT LeftCollar
				{
					OFFSET 0 0 0
					CHANNELS 3 Zrotation Yrotation Xrotation
					JOINT LeftShoulder
					{
						OFFSET 3.47537 0.55866 -0.72348
CHANNELS 3 Zrotation Xrotation Yrotation
						JOINT LeftElbow
						{
OFFSET 0 -5.381540 0.000000
CHANNELS 3 Zrotation Xrotation Yrotation
							JOINT LeftWrist
							{
OFFSET 0 -3.333120 0.000000
CHANNELS 3 Zrotation Xrotation Yrotation
								JOINT lhand
								{
									OFFSET 0 0 0
CHANNELS 3 Zrotation Xrotation Yrotation
									JOINT LFingers
									{
OFFSET 0 -0.710790 0.000000
CHANNELS 3 Zrotation Xrotation Yrotation
										End Site
										{
OFFSET 0 -0.573060 0.000000
										}
									}
								}
								JOINT LThumb
								{
OFFSET 0 0.000000 0.000000
CHANNELS 3 Zrotation Xrotation Yrotation
									End Site
									{
OFFSET 0 -0.581810 0.581810
									}
								}
							}
						}
					}
				}
				JOINT RightCollar
				{
					OFFSET 0 0 0
					CHANNELS 3 Zrotation Yrotation Xrotation
					JOINT RightShoulder
					{
						OFFSET -3.27844 0.90739 -0.35708
CHANNELS 3 Zrotation Xrotation Yrotation
						JOINT RightElbow
						{
OFFSET 0 -5.169540 0.000000
CHANNELS 3 Zrotation Xrotation Yrotation
							JOINT RightWrist
							{
OFFSET 0 -3.382870 0.000000
CHANNELS 3 Zrotation Xrotation Yrotation
								JOINT rhand
								{
									OFFSET 0 0 0
CHANNELS 3 Zrotation Xrotation Yrotation
									JOINT RFingers
									{
OFFSET 0 -0.817970 0.000000
CHANNELS 3 Zrotation Xrotation Yrotation
										End Site
										{
OFFSET 0 -0.659470 0.000000
										}
									}
								}
								JOINT RThumb
								{
OFFSET 0 0.000000 0.000000
CHANNELS 3 Zrotation Xrotation Yrotation
									End Site
									{
OFFSET 0 -0.669530 0.669530
									}
								}
							}
						}
					}
				}
			}
		}
	}
}
MOTION
Frames: 9
Frame Time: 0.008333333333333333
3.001200 17.029900 -16.711300 2.073800 -5.189300 -3.527900 0.000000 0.000000 0.000000 -26.460500 2.193300 -12.286500 3.428600 11.358500 33.498700 0.714200 -12.999100 -16.454000 0.014500 -0.776800 -2.135000 0.000000 0.000000 0.000000 13.964500 3.564900 -31.315100 -7.940200 -16.075100 52.347200 -0.710700 -0.091200 -15.966600 -0.001700 0.264500 -0.726800 -1.299200 2.319200 3.233000 0.625200 3.055600 1.023100 1.245400 1.527400 -0.863000 -11.645400 -3.913300 -14.146500 9.948000 -4.962200 20.604300 4.795900 -2.191600 9.355200 -0.000000 -0.000000 0.000000 -5.023400 18.688800 13.678000 7.856100 -13.319400 0.918700 -10.576900 19.360300 -40.069500 0.000000 0.000000 0.000000 -7.125000 0.000000 0.000000 -54.630100 61.571200 26.176400 -0.000000 -0.000000 0.000000 -6.852600 -38.067000 21.829700 -25.154700 -36.361700 -8.381400 -18.516800 -32.814900 -15.883100 0.000000 0.000000 0.000000 7.125000 0.000000 -0.000000 6.150000 13.347000 4.591300
3.003422 17.036687 -16.648477 2.195002 -4.862620 -3.417121 0.000000 0.000000 0.000000 -26.652363 2.139002 -11.948710 3.356323 11.249499 33.127458 0.718119 -13.030815 -16.498198 0.031549 -1.083603 -2.979616 0.000000 0.000000 0.000000 13.728196 3.634268 -31.770981 -7.716461 -15.902912 51.528682 -0.731830 -0.424829 -16.327378 -0.011962 0.586857 -1.613110 -1.379597 2.271527 3.230455 0.514623 2.987848 0.900201 1.177042 1.495201 -0.983636 -11.619140 -3.991354 -14.124360 10.018257 -5.101380 20.656013 4.799980 -2.248040 9.387359 0.000000 0.000000 0.000000 -4.790692 19.056971 13.806757 7.820386 -13.261304 0.910499 -10.594272 19.680758 -40.228557 0.000000 0.000000 0.000000 -7.125000 0.000000 0.000000 -54.869110 61.666222 26.453791 0.000000 0.000000 0.000000 -7.035777 -38.216159 21.484597 -25.289477 -36.497931 -8.461636 -18.469450 -32.849806 -16.040259 0.000000 0.000000 0.000000 7.125000 0.000000 0.000000 6.187653 13.189074 4.640548
3.005644 17.043475 -16.585654 2.316204 -4.535940 -3.306343 0.000000 0.000000 0.000000 -26.844226 2.084703 -11.610920 3.284046 11.140498 32.756217 0.722038 -13.062529 -16.542397 0.048598 -1.390405 -3.824233 0.000000 0.000000 0.000000 13.491893 3.703636 -32.226862 -7.492722 -15.730725 50.710165 -0.752959 -0.758457 -16.688156 -0.022224 0.909214 -2.499420 -1.459995 2.223854 3.227910 0.404047 2.920096 0.777302 1.108684 1.463001 -1.104273 -11.592879 -4.069408 -14.102221 10.088514 -5.240561 20.707726 4.804061 -2.304479 9.419518 0.000000 0.000000 0.000000 -4.557984 19.425143 13.935514 7.784672 -13.203208 0.902297 -10.611645 20.001216 -40.387615 0.000000 0.000000 0.000000 -7.125000 0.000000 0.000000 -55.108121 61.761245 26.731182 0.000000 0.000000 0.000000 -7.218953 -38.365319 21.139495 -25.424253 -36.634162 -8.541871 -18.422101 -32.884712 -16.197417 0.000000 0.000000 0.000000 7.125000 0.000000 0.000000 6.225307 13.031148 4.689797
3.010092 17.052149 -16.522343 2.417582 -4.150128 -3.243078 0.000000 0.000000 0.000000 -27.021056 2.012976 -11.196124 3.213084 11.031433 32.387053 0.729307 -13.105735 -16.618419 0.068828 -1.671829 -4.600112 0.000000 0.000000 0.000000 13.259724 3.687157 -32.591872 -7.252191 -15.536911 49.815363 -0.765205 -1.058311 -16.944048 -0.025298 1.024088 -2.815184 -1.544929 2.145714 3.205116 0.340433 2.812696 0.721995 1.095176 1.410109 -1.145571 -11.531487 -4.136607 -14.150514 10.042329 -5.337867 20.764845 4.765271 -2.348749 9.457571 0.000000 0.000000 0.000000 -4.371709 19.676936 14.097240 7.717769 -13.094227 0.887184 -10.619582 20.258386 -40.534312 0.000000 0.000000 0.000000 -7.125000 0.000000 0.000000 -55.323194 61.850543 26.986841 0.000000 0.000000 0.000000 -7.463764 -38.571617 20.835842 -25.571051 -36.781524 -8.629676 -18.423219 -32.954729 -16.376774 0.000000 0.000000 0.000000 7.125000 0.000000 0.000000 6.231666 12.844895 4.718840
3.016556 17.062532 -16.458591 2.501010 -3.710771 -3.222837 0.000000 0.000000 0.000000 -27.184275 1.925469 -10.711599 3.143312 10.922311 32.019770 0.739609 -13.159347 -16.723259 0.091937 -1.930272 -5.313750 0.000000 0.000000 0.000000 13.031298 3.592943 -32.874595 -6.996455 -15.323515 48.851483 -0.769407 -1.327582 -17.104963 -0.021864 0.951084 -2.614312 -1.633972 2.039986 3.163988 0.319343 2.669395 0.727894 1.131334 1.338478 -1.115028 -11.438283 -4.193976 -14.262586 9.890705 -5.397256 20.826860 4.687661 -2.381999 9.500961 0.000000 0.000000 0.000000 -4.227478 19.823348 14.288820 7.622626 -12.939169 0.865812 -10.618976 20.458248 -40.669815 0.000000 0.000000 0.000000 -7.125000 0.000000 0.000000 -55.516592 61.934657 27.222821 0.000000 0.000000 0.000000 -7.764385 -38.829656 20.569723 -25.728735 -36.938966 -8.724335 -18.468225 -33.056539 -16.576232 0.000000 0.000000 0.000000 7.125000 0.000000 0.000000 6.209688 12.632994 4.729586
3.022844 17.072947 -16.394919 2.569524 -3.278381 -3.206118 0.000000 0.000000 0.000000 -27.329377 1.838570 -10.222815 3.073498 10.812919 31.651796 0.749043 -13.214862 -16.821442 0.112590 -2.160773 -5.950240 0.000000 0.000000 0.000000 12.819946 3.508222 -33.147964 -6.740743 -15.109171 47.885966 -0.773206 -1.603481 -17.265509 -0.018396 0.875880 -2.407397 -1.712099 1.936277 3.123948 0.305492 2.529209 0.738038 1.168703 1.268329 -1.080683 -11.354999 -4.248875 -14.368072 9.750240 -5.453355 20.878023 4.615967 -2.413466 9.539524 0.000000 0.000000 0.000000 -4.089244 19.962073 14.488041 7.528450 -12.785666 0.844681 -10.619766 20.665479 -40.802669 0.000000 0.000000 0.000000 -7.125000 0.000000 0.000000 -55.707472 62.016736 27.454582 0.000000 0.000000 0.000000 -8.072371 -39.091367 20.305535 -25.886363 -37.096247 -8.819004 -18.514546 -33.163479 -16.764011 0.000000 0.000000 0.000000 7.125000 0.000000 0.000000 6.186364 12.433056 4.737729
3.025753 17.083976 -16.332783 2.352209 -2.979538 -3.256902 0.000000 0.000000 0.000000 -27.127253 1.763344 -9.652398 3.002878 10.698342 31.270576 0.741852 -13.306854 -16.792030 0.086168 -1.855707 -5.108088 0.000000 0.000000 0.000000 12.935815 3.605466 -33.242017 -6.485491 -14.876665 46.889039 -0.769287 -2.006438 -17.418950 -0.014275 0.758516 -2.084677 -1.580999 1.871272 3.104758 0.430371 2.448731 0.829545 1.229264 1.226554 -0.973460 -11.461859 -4.256430 -14.347347 9.823648 -5.446407 20.721188 4.657661 -2.410759 9.485548 0.000000 0.000000 0.000000 -4.065933 19.953468 14.833709 7.452820 -12.661959 0.828157 -10.647320 21.013935 -40.884723 0.000000 0.000000 0.000000 -7.125000 0.000000 0.000000 -55.850086 62.059803 27.605479 0.000000 0.000000 0.000000 -8.521505 -39.423461 20.078362 -26.042916 -37.250456 -8.913865 -18.586055 -33.368755 -16.727933 0.000000 0.000000 0.000000 7.125000 0.000000 0.000000 6.137237 12.462428 4.695954
3.028662 17.095006 -16.270646 2.134894 -2.680694 -3.307685 0.000000 0.000000 0.000000 -26.925128 1.688118 -9.081981 2.932257 10.583766 30.889355 0.734661 -13.398846 -16.762618 0.059746 -1.550642 -4.265937 0.000000 0.000000 0.000000 13.051684 3.702711 -33.336069 -6.230240 -14.644159 45.892112 -0.765368 -2.409394 -17.572392 -0.010154 0.641152 -1.761956 -1.449899 1.806267 3.085568 0.555249 2.368253 0.921053 1.289824 1.184780 -0.866236 -11.568718 -4.263984 -14.326621 9.897056 -5.439458 20.564352 4.699354 -2.408052 9.431573 0.000000 0.000000 0.000000 -4.042622 19.944863 15.179377 7.377190 -12.538252 0.811633 -10.674873 21.362390 -40.966776 0.000000 0.000000 0.000000 -7.125000 0.000000 0.000000 -55.992701 62.102870 27.756375 0.000000 0.000000 0.000000 -8.970640 -39.755554 19.851189 -26.199468 -37.404665 -9.008725 -18.657564 -33.574031 -16.691855 0.000000 0.000000 0.000000 7.125000 0.000000 0.000000 6.088110 12.491799 4.654180
3.028925 17.102345 -16.209369 1.988007 -2.423457 -3.363922 0.000000 0.000000 0.000000 -26.789533 1.685014 -8.533609 2.862055 10.467264 30.504468 0.730370 -13.473922 -16.752258 0.052584 -1.476075 -4.059866 0.000000 0.000000 0.000000 13.091880 3.855811 -33.405942 -5.973944 -14.397869 44.867153 -0.759407 -2.870456 -17.753332 -0.009978 0.638980 -1.755989 -1.385676 1.765999 3.103761 0.636873 2.317478 0.992395 1.340499 1.158391 -0.802384 -11.712173 -4.283421 -14.279326 10.080295 -5.468407 20.398095 4.781959 -2.414419 9.378201 0.000000 0.000000 0.000000 -4.019241 19.942267 15.735169 7.321632 -12.447334 0.799564 -10.718716 21.985180 -40.991397 0.000000 0.000000 0.000000 -7.125000 0.000000 0.000000 -56.066070 62.106302 27.809926 0.000000 0.000000 0.000000 -9.374755 -40.058479 19.589928 -26.333813 -37.536203 -9.090406 -18.675353 -33.806758 -16.585767 0.000000 0.000000 0.000000 7.125000 0.000000 0.000000 6.071864 12.599929 4.627768
